<svg width="534" height="921" viewBox="0 0 534 921" fill="none" xmlns="http://www.w3.org/2000/svg">
<path d="M388.475 694.472C367.096 683.529 348.133 671.661 330.674 655.599L174.723 790.754C210.806 822.949 251.89 851.162 297.063 872.124L388.475 694.472Z" fill="#DDA63A"/>
<path d="M60.9021 631.689L260.224 554.886C252.512 534.06 248.296 513.447 245.33 491.838L30.6275 496.992C33.974 543.267 43.3169 587.763 60.9021 631.689Z" fill="#C5192D"/>
<path d="M272.174 581.328L74.1013 657.136C94.1868 699.072 121.604 737.167 155.187 771.352L311.138 636.198C293.764 619.069 281.136 601.159 272.174 581.328Z" fill="#4C9F38"/>
<path d="M321.615 298.267C338.122 282.129 356.789 268.264 377.618 256.674L277.803 83.4623C233.814 106.501 193.979 136.22 159.631 170.559L321.615 298.267Z" fill="#FCC30B"/>
<path d="M245.881 455.442C247.323 437.316 251.095 419.331 255.947 402.484L54.0019 335.558C41.8811 370.178 34.3369 406.147 31.4543 442.399C30.6912 451.996 30.0126 460.526 30.415 470.193L245.118 465.039C245.373 461.84 245.627 458.641 245.881 455.442Z" fill="#FF3A21"/>
<path d="M304.628 70.0948L403.277 243.236C425.101 233.85 447.922 226.666 470.488 222.682L446.211 27.2791C397.583 35.0353 349.612 49.2599 304.628 70.0948Z" fill="#A21942"/>
<path d="M266.309 375.261C274.912 355.427 286.842 337.939 301.103 320.592L139.204 191.817C108.267 227.435 82.903 266.606 64.3619 308.335L266.309 375.261Z" fill="#26BDE2"/>
<path d="M484.586 722.817C461.363 720.333 438.395 714.65 416.762 706.906L325.349 884.558C370.777 902.321 419.044 913.828 468.985 919.008L484.586 722.817Z" fill="#E8203A"/>
</svg>
